<svg width="22" height="23" viewBox="0 0 22 23" fill="none" xmlns="http://www.w3.org/2000/svg">
<path d="M1 15.1352C0.447715 15.1352 0 15.5829 0 16.1352C0 16.6874 0.447715 17.1352 1 17.1352V15.1352ZM4.12501 8.15897L3.12501 8.15897V8.15897H4.12501ZM18.7084 8.15897L19.7084 8.15897L18.7084 8.15897ZM13.2188 20.1233L14.074 20.6416C14.2611 20.3328 14.2672 19.9471 14.09 19.6325C13.9128 19.3179 13.5798 19.1233 13.2188 19.1233V20.1233ZM9.61462 20.1233V19.1233C9.25356 19.1233 8.92053 19.3179 8.74333 19.6325C8.56613 19.9471 8.57228 20.3328 8.75942 20.6416L9.61462 20.1233ZM21.8334 15.1352H1V17.1352H21.8334V15.1352ZM1 17.1352C3.23644 17.1352 5.12501 15.3891 5.12501 13.1441H3.12501C3.12501 14.2029 2.21534 15.1352 1 15.1352V17.1352ZM5.12501 13.1441V8.15897H3.12501V13.1441H5.12501ZM5.12501 8.15897C5.12501 4.8976 7.90015 2.17981 11.4167 2.17981V0.17981C6.87905 0.17981 3.12501 3.71137 3.12501 8.15897L5.12501 8.15897ZM11.4167 2.17981C14.9332 2.17981 17.7084 4.8976 17.7084 8.15897L19.7084 8.15897C19.7084 3.71137 15.9543 0.17981 11.4167 0.17981V2.17981ZM17.7084 8.15897V13.1441H19.7084V8.15897H17.7084ZM17.7084 13.1441C17.7084 15.3891 19.5969 17.1352 21.8334 17.1352V15.1352C20.618 15.1352 19.7084 14.2029 19.7084 13.1441H17.7084ZM12.3635 19.605C12.1793 19.909 11.8239 20.1168 11.4167 20.1168V22.1168C12.4951 22.1168 13.5128 21.5674 14.074 20.6416L12.3635 19.605ZM11.4167 20.1168C11.0095 20.1168 10.6541 19.909 10.4698 19.605L8.75942 20.6416C9.32054 21.5674 10.3383 22.1168 11.4167 22.1168V20.1168ZM9.61462 21.1233H13.2188V19.1233H9.61462V21.1233Z" fill="#333333"/>
</svg>
