<svg width="11" height="12" viewBox="0 0 11 12" fill="none" xmlns="http://www.w3.org/2000/svg">
<path d="M1.4165 0.512512H6.6415C7.33438 0.512512 7.99887 0.787757 8.48881 1.27769C8.97875 1.76763 9.254 2.43213 9.254 3.12501C9.254 3.81789 8.97875 4.48239 8.48881 4.97232C7.99887 5.46226 7.33438 5.73751 6.6415 5.73751H1.4165V0.512512Z" stroke="#424242" stroke-linecap="round" stroke-linejoin="round"/>
<path d="M1.4165 5.73749H7.29462C7.9875 5.73749 8.652 6.01273 9.14194 6.50267C9.63188 6.99261 9.90712 7.65711 9.90712 8.34998C9.90712 9.04286 9.63188 9.70736 9.14194 10.1973C8.652 10.6872 7.9875 10.9625 7.29462 10.9625H1.4165V5.73749Z" stroke="#424242" stroke-linecap="round" stroke-linejoin="round"/>
</svg>
