<svg width="12" height="12" viewBox="0 0 12 12" fill="none" xmlns="http://www.w3.org/2000/svg">
<path d="M5.47287 2.05426H1.99397C1.73035 2.05426 1.47753 2.15898 1.29113 2.34539C1.10472 2.53179 1 2.78461 1 3.04823V10.006C1 10.2696 1.10472 10.5225 1.29113 10.7089C1.47753 10.8953 1.73035 11 1.99397 11H8.95177C9.21539 11 9.46821 10.8953 9.65461 10.7089C9.84102 10.5225 9.94574 10.2696 9.94574 10.006V6.52713" stroke="white" stroke-linecap="round" stroke-linejoin="round"/>
<path d="M9.20028 1.30879C9.398 1.11107 9.66615 1 9.94576 1C10.2254 1 10.4935 1.11107 10.6912 1.30879C10.889 1.5065 11 1.77466 11 2.05427C11 2.33387 10.889 2.60203 10.6912 2.79974L5.96988 7.52111L3.98193 8.01809L4.47892 6.03015L9.20028 1.30879Z" stroke="white" stroke-linecap="round" stroke-linejoin="round"/>
</svg>
