<svg width="14" height="15" viewBox="0 0 14 15" fill="none" xmlns="http://www.w3.org/2000/svg">
<path d="M1 3.66663H2.33333H13" stroke="grey" stroke-linecap="round" stroke-linejoin="round"/>
<path d="M12.1668 3.66667C12.1668 3.39052 11.943 3.16667 11.6668 3.16667C11.3907 3.16667 11.1668 3.39052 11.1668 3.66667H12.1668ZM2.8335 3.66667C2.8335 3.39052 2.60964 3.16667 2.3335 3.16667C2.05735 3.16667 1.8335 3.39052 1.8335 3.66667H2.8335ZM3.8335 3.66667C3.8335 3.94281 4.05735 4.16667 4.3335 4.16667C4.60964 4.16667 4.8335 3.94281 4.8335 3.66667H3.8335ZM9.16683 3.66667C9.16683 3.94281 9.39069 4.16667 9.66683 4.16667C9.94297 4.16667 10.1668 3.94281 10.1668 3.66667H9.16683ZM11.1668 3.66667V13H12.1668V3.66667H11.1668ZM11.1668 13C11.1668 13.4602 10.7937 13.8333 10.3335 13.8333V14.8333C11.346 14.8333 12.1668 14.0125 12.1668 13H11.1668ZM10.3335 13.8333H3.66683V14.8333H10.3335V13.8333ZM3.66683 13.8333C3.20659 13.8333 2.8335 13.4602 2.8335 13H1.8335C1.8335 14.0125 2.65431 14.8333 3.66683 14.8333V13.8333ZM2.8335 13V3.66667H1.8335V13H2.8335ZM4.8335 3.66667V2.33333H3.8335V3.66667H4.8335ZM4.8335 2.33333C4.8335 1.8731 5.20659 1.5 5.66683 1.5V0.5C4.65431 0.5 3.8335 1.32081 3.8335 2.33333H4.8335ZM5.66683 1.5H8.3335V0.5H5.66683V1.5ZM8.3335 1.5C8.79374 1.5 9.16683 1.8731 9.16683 2.33333H10.1668C10.1668 1.32081 9.34602 0.5 8.3335 0.5V1.5ZM9.16683 2.33333V3.66667H10.1668V2.33333H9.16683Z" fill="grey"/>
<path d="M5.6665 7V11" stroke="grey" stroke-linecap="round" stroke-linejoin="round"/>
<path d="M8.3335 7V11" stroke="grey" stroke-linecap="round" stroke-linejoin="round"/>
</svg>
