<svg width="12" height="13" viewBox="0 0 12 13" fill="none" xmlns="http://www.w3.org/2000/svg">
<path d="M9.2501 4.3C10.1614 4.3 10.9001 3.56127 10.9001 2.65C10.9001 1.73873 10.1614 1 9.2501 1C8.33883 1 7.6001 1.73873 7.6001 2.65C7.6001 3.56127 8.33883 4.3 9.2501 4.3Z" stroke="#7D8B96" stroke-linecap="round" stroke-linejoin="round"/>
<path d="M2.65 8.14961C3.56127 8.14961 4.3 7.41088 4.3 6.49961C4.3 5.58834 3.56127 4.84961 2.65 4.84961C1.73873 4.84961 1 5.58834 1 6.49961C1 7.41088 1.73873 8.14961 2.65 8.14961Z" stroke="#7D8B96" stroke-linecap="round" stroke-linejoin="round"/>
<path d="M9.2501 12C10.1614 12 10.9001 11.2612 10.9001 10.35C10.9001 9.43868 10.1614 8.69995 9.2501 8.69995C8.33883 8.69995 7.6001 9.43868 7.6001 10.35C7.6001 11.2612 8.33883 12 9.2501 12Z" stroke="#7D8B96" stroke-linecap="round" stroke-linejoin="round"/>
<path d="M4.07471 7.33057L7.83121 9.51957" stroke="#7D8B96" stroke-linecap="round" stroke-linejoin="round"/>
<path d="M7.82571 3.48047L4.07471 5.66947" stroke="#7D8B96" stroke-linecap="round" stroke-linejoin="round"/>
</svg>
