<svg width="15" height="15" viewBox="0 0 15 15" fill="none" xmlns="http://www.w3.org/2000/svg">
<path d="M12.4598 1.32513H2.48481C1.69781 1.32513 1.05981 1.96313 1.05981 2.75013V12.7251C1.05981 13.5121 1.69781 14.1501 2.48481 14.1501H12.4598C13.2468 14.1501 13.8848 13.5121 13.8848 12.7251V2.75013C13.8848 1.96313 13.2468 1.32513 12.4598 1.32513Z" stroke="#424242" stroke-linecap="round" stroke-linejoin="round"/>
<path d="M4.97927 6.31248C5.56952 6.31248 6.04802 5.83399 6.04802 5.24374C6.04802 4.65348 5.56952 4.17499 4.97927 4.17499C4.38902 4.17499 3.91052 4.65348 3.91052 5.24374C3.91052 5.83399 4.38902 6.31248 4.97927 6.31248Z" stroke="#424242" stroke-linecap="round" stroke-linejoin="round"/>
<path d="M13.8836 9.875L10.3211 6.3125L2.48364 14.15" stroke="#424242" stroke-linecap="round" stroke-linejoin="round"/>
</svg>
