<svg width="42" height="42" viewBox="0 0 42 42" fill="none" xmlns="http://www.w3.org/2000/svg">
<rect x="1" y="1" width="40" height="40" rx="4" fill="white" stroke="#7D8B96" stroke-width="0.2"/>
<path d="M8 9.8625C8 8.83441 8.8552 8 9.90955 8H31.9267C32.9814 8 33.8362 8.83441 33.8362 9.8625V32.1378C33.8362 33.1663 32.9814 34 31.9267 34H9.90955C8.8552 34 8 33.1663 8 32.1382V9.86216V9.8625Z" fill="#006699"/>
<path d="M15.8319 29.7646V18.0242H11.9296V29.7646H15.8322H15.8319ZM13.8814 16.4215C15.242 16.4215 16.089 15.5199 16.089 14.3933C16.0634 13.2411 15.242 12.3647 13.9074 12.3647C12.5717 12.3647 11.6994 13.2411 11.6994 14.3933C11.6994 15.5199 12.5461 16.4215 13.8559 16.4215H13.8811H13.8814ZM17.9917 29.7646H21.8937V23.209C21.8937 22.8584 21.9193 22.5072 22.0222 22.2569C22.3042 21.5555 22.9463 20.8295 24.0245 20.8295C25.4362 20.8295 26.0013 21.9061 26.0013 23.4845V29.7646H29.9032V23.033C29.9032 19.427 27.9783 17.749 25.411 17.749C23.3061 17.749 22.3817 18.9254 21.8681 19.7268H21.894V18.0245H17.9921C18.0429 19.1259 17.9917 29.7649 17.9917 29.7649V29.7646Z" fill="white"/>
</svg>
