<svg width="19" height="15" viewBox="0 0 19 15" fill="none" xmlns="http://www.w3.org/2000/svg">
<path d="M18.4734 3.46265H5.64844" stroke="#424242" stroke-linecap="round" stroke-linejoin="round"/>
<path d="M18.4734 7.73761H5.64844" stroke="#424242" stroke-linecap="round" stroke-linejoin="round"/>
<path d="M18.4734 12.0126H5.64844" stroke="#424242" stroke-linecap="round" stroke-linejoin="round"/>
<path d="M1.93079 1.51512V1.26012H2.53679V3.37512H2.24879V1.51512H1.93079Z" fill="#424242"/>
<path d="M1.59738 8.3901C1.93738 8.1621 2.20938 7.9361 2.41338 7.7121C2.61738 7.4861 2.71938 7.2761 2.71938 7.0821C2.71938 6.9621 2.68838 6.8661 2.62638 6.7941C2.56638 6.7201 2.46838 6.6831 2.33238 6.6831C2.19238 6.6831 2.08638 6.7281 2.01438 6.8181C1.94238 6.9061 1.90238 7.0281 1.89438 7.1841H1.62438C1.63838 6.9481 1.71138 6.7671 1.84338 6.6411C1.97538 6.5131 2.14538 6.4491 2.35338 6.4491C2.55138 6.4491 2.70838 6.5021 2.82438 6.6081C2.94038 6.7141 2.99838 6.8641 2.99838 7.0581C2.99838 7.2181 2.94638 7.3811 2.84238 7.5471C2.74038 7.7111 2.61138 7.8641 2.45538 8.0061C2.30138 8.1461 2.14238 8.2651 1.97838 8.3631H3.05238V8.5881H1.59738V8.3901Z" fill="#424242"/>
<path d="M2.33616 11.178C2.47216 11.178 2.58916 11.202 2.68716 11.25C2.78516 11.298 2.85916 11.364 2.90916 11.448C2.95916 11.532 2.98416 11.627 2.98416 11.733C2.98416 11.865 2.94516 11.976 2.86716 12.066C2.79116 12.156 2.67916 12.21 2.53116 12.228V12.246C2.68516 12.286 2.80516 12.348 2.89116 12.432C2.97916 12.516 3.02316 12.632 3.02316 12.78C3.02316 12.954 2.96516 13.096 2.84916 13.206C2.73316 13.316 2.56616 13.371 2.34816 13.371C2.13016 13.371 1.95316 13.315 1.81716 13.203C1.68316 13.089 1.60416 12.923 1.58016 12.705H1.85016C1.86816 12.837 1.91816 12.942 2.00016 13.02C2.08416 13.098 2.19716 13.137 2.33916 13.137C2.47316 13.137 2.57616 13.103 2.64816 13.035C2.72016 12.965 2.75616 12.875 2.75616 12.765C2.75616 12.633 2.70416 12.533 2.60016 12.465C2.49816 12.395 2.35216 12.36 2.16216 12.36H2.09016V12.132H2.16216C2.53016 12.132 2.71416 12.009 2.71416 11.763C2.71416 11.655 2.68016 11.569 2.61216 11.505C2.54416 11.441 2.45016 11.409 2.33016 11.409C2.21016 11.409 2.10916 11.444 2.02716 11.514C1.94516 11.582 1.89716 11.683 1.88316 11.817H1.61616C1.63016 11.617 1.69916 11.461 1.82316 11.349C1.94916 11.235 2.12016 11.178 2.33616 11.178Z" fill="#424242"/>
</svg>
