<svg width="26" height="22" viewBox="0 0 26 22" fill="none" xmlns="http://www.w3.org/2000/svg">
<path d="M18.7756 16.5844L18.9488 19.1818C19.0353 20.1342 18.2561 20.9134 17.3038 21C17.2172 21 17.2172 21 17.1306 21C14.4466 20.8268 11.8492 20.0476 9.51155 18.7489C7.34705 17.5368 5.52887 15.8918 4.05701 13.8139C2.49857 11.6494 1.45961 9.13854 1.02671 6.45456C0.853552 5.58876 1.54619 4.72296 2.41199 4.5498C2.49857 4.5498 2.49857 4.5498 2.58515 4.5498L5.18255 4.37664C6.04835 4.37664 6.82757 4.9827 7.00073 5.76192C7.17389 6.62772 7.43363 7.40694 7.69337 8.18616C7.95311 8.79222 7.86653 9.48486 7.43363 10.0043L6.39467 11.1299C7.77995 13.2078 9.59813 14.9394 11.8492 16.0649L12.8882 14.9394C13.3211 14.4199 14.0137 14.2468 14.7064 14.4199C15.4856 14.6797 16.3514 14.8528 17.1306 14.9394C18.083 15.026 18.689 15.7186 18.7756 16.5844Z" stroke="#333333" stroke-width="1.5" stroke-linecap="round" stroke-linejoin="round"/>
<path d="M7.69336 2.7316C7.69336 1.77922 8.47258 1 9.42496 1H23.2778C24.2301 1 25.0094 1.77922 25.0094 2.7316V13.1212C25.0094 14.0736 24.2301 14.8528 23.2778 14.8528H16.7843" stroke="#333333" stroke-width="1.5" stroke-linecap="round" stroke-linejoin="round"/>
<path d="M25.0094 2.7316L16.3514 8.7922L7.69336 2.7316" stroke="#333333" stroke-width="1.5" stroke-linecap="round" stroke-linejoin="round"/>
</svg>
