<svg width="25" height="24" viewBox="0 0 25 24" fill="none" xmlns="http://www.w3.org/2000/svg">
<path fill-rule="evenodd" clip-rule="evenodd" d="M12.4999 14C13.6223 14 14.5322 13.1046 14.5322 12C14.5322 10.8954 13.6223 10 12.4999 10C11.3775 10 10.4677 10.8954 10.4677 12C10.4677 13.1046 11.3775 14 12.4999 14Z" fill="#333333"/>
<path fill-rule="evenodd" clip-rule="evenodd" d="M20.6289 14C21.7513 14 22.6612 13.1046 22.6612 12C22.6612 10.8954 21.7513 10 20.6289 10C19.5066 10 18.5967 10.8954 18.5967 12C18.5967 13.1046 19.5066 14 20.6289 14Z" fill="#333333"/>
<path fill-rule="evenodd" clip-rule="evenodd" d="M4.37088 14C5.49326 14 6.40313 13.1046 6.40313 12C6.40313 10.8954 5.49326 10 4.37088 10C3.24849 10 2.33862 10.8954 2.33862 12C2.33862 13.1046 3.24849 14 4.37088 14Z" fill="#333333"/>
</svg>
