<svg width="90" height="21" viewBox="0 0 90 21" fill="none" xmlns="http://www.w3.org/2000/svg">
<path d="M12.8861 2.11665C11.491 0.902684 9.86753 0.271423 8.09188 0.271423H0V3.5734H7.91432C9.61387 3.5734 11.2119 4.76309 11.2119 6.89966C11.2119 8.98768 9.61387 10.1774 7.91432 10.1774H0V20.5689H3.80496V13.4793H8.09188C9.91826 13.4793 11.5163 12.8481 12.8861 11.6098C14.2813 10.3473 14.9915 8.79345 14.9915 6.89966C14.9915 4.93304 14.2813 3.33061 12.8861 2.11665Z" fill="#0969CE"/>
<path d="M18.5176 20.5689V0.271423H22.3225V20.5689H18.5176Z" fill="#0969CE"/>
<path d="M27.1674 20.5689V0.271423H30.5157L41.753 14.3534V0.271423H45.4312V20.5689H42.3365L30.8709 6.21984V20.5689H27.1674Z" fill="#0969CE"/>
<path d="M60.5495 0.271423H57.328L48.4751 20.5689H52.5084L58.9514 5.24867L65.3945 20.5689H69.4024L60.5495 0.271423Z" fill="#0969CE"/>
<path d="M72.4719 20.5689V0.271423H76.2769V10.0074L85.2566 0.271423H89.7464L81.5024 9.20619L90.0001 20.5689H85.561L78.9657 11.8041L76.2769 14.6205V20.5689H72.4719Z" fill="#0969CE"/>
</svg>
