<svg width="42" height="42" viewBox="0 0 42 42" fill="none" xmlns="http://www.w3.org/2000/svg">
<rect x="1" y="1" width="40" height="40" rx="4" fill="white" stroke="#7D8B96" stroke-width="0.2"/>
<path fill-rule="evenodd" clip-rule="evenodd" d="M26.7764 30.2907H12.0175C12.0175 32.3456 13.6631 34 15.7093 34H26.7764C28.8138 34 30.4595 32.3368 30.4595 30.2907V15.0354C30.4595 14.9657 30.3987 14.8963 30.329 14.8963H26.9069C26.8372 14.8963 26.7764 14.9571 26.7764 15.0354V30.2907ZM26.7764 8C28.8138 8 30.4595 9.66313 30.4595 11.7181H15.7006V26.9732C15.7006 27.0429 15.6397 27.1126 15.5613 27.1126H12.1394C12.0697 27.1126 12 27.0515 12 26.9732V11.7181C12 9.66313 13.6457 8 15.692 8H26.7764Z" fill="#0DAB40"/>
</svg>
