<svg width="42" height="42" viewBox="0 0 42 42" fill="none" xmlns="http://www.w3.org/2000/svg">
<rect x="1" y="1" width="40" height="40" rx="4" fill="white" stroke="#7D8B96" stroke-width="0.2"/>
<path d="M27.1794 19.0899C28.2513 19.2931 29.0082 19.7452 29.4451 20.4463C29.8871 21.1473 30.1055 22.2548 30.1055 23.7687C30.1055 26.771 29.2013 29.2247 27.3978 31.1348C25.5944 33.0449 23.288 34 20.4787 34C19.3712 34 18.2993 33.8019 17.2528 33.4005C16.2114 32.9992 15.3173 32.4455 14.5655 31.7292C13.7069 30.9418 13.0668 30.1137 12.635 29.2399C12.2134 28.3662 12 27.4721 12 26.5526C12 25.5264 12.2184 24.739 12.6604 24.1751C13.1024 23.6163 13.7984 23.2352 14.7483 23.032C14.5705 22.6155 14.4385 22.2649 14.3572 21.9805C14.2759 21.696 14.2302 21.4724 14.2302 21.32C14.2302 20.7866 14.5147 20.238 15.0785 19.6792C15.6424 19.1204 16.1759 18.841 16.6788 18.841C16.8921 18.841 17.1208 18.8816 17.3595 18.9578C17.5983 19.034 17.8726 19.161 18.1825 19.3439C17.263 16.7479 16.5975 14.7464 16.1809 13.3341C15.7644 11.9168 15.5561 10.9414 15.5561 10.408C15.5561 9.67136 15.744 9.08206 16.125 8.65025C16.5061 8.21336 17.0242 8 17.6796 8C18.7972 8 20.2145 10.4994 21.9316 15.5033C22.2313 16.3619 22.4549 17.0223 22.6123 17.4846C22.7444 17.1137 22.9273 16.5905 23.1661 15.9148C24.8781 10.9566 26.3513 8.47753 27.5909 8.47753C28.2005 8.47753 28.6831 8.68073 29.0488 9.09222C29.4095 9.50371 29.5924 10.0524 29.5924 10.7433C29.5924 11.2665 29.3943 12.2267 28.993 13.6186C28.5967 15.0156 27.9922 16.8394 27.1794 19.0899ZM14.3927 26.3748C14.5604 26.578 14.7941 26.8726 15.0887 27.2689C15.8761 28.3509 16.6026 28.8945 17.2681 28.8945C17.4916 28.8945 17.6948 28.8234 17.8777 28.6811C18.0555 28.5389 18.1469 28.3916 18.1469 28.2341C18.1469 28.0563 18.0301 27.7565 17.7913 27.34C17.5526 26.9234 17.2274 26.451 16.8109 25.9277C16.3333 25.3181 15.9371 24.8761 15.6221 24.5967C15.3021 24.3173 15.0481 24.1801 14.855 24.1801C14.4385 24.1801 14.0524 24.4037 13.7018 24.8507C13.3513 25.2978 13.1735 25.8261 13.1735 26.4306C13.1735 26.9183 13.2954 27.4619 13.5393 28.0664C13.7831 28.6659 14.1387 29.2704 14.601 29.88C15.3021 30.8199 16.1759 31.5412 17.2173 32.0492C18.2587 32.5572 19.4119 32.8062 20.6717 32.8062C22.9934 32.8062 24.939 31.9375 26.5037 30.2102C28.0684 28.4779 28.8507 26.3087 28.8507 23.7026C28.8507 22.905 28.7898 22.27 28.6729 21.8027C28.5561 21.3302 28.358 20.9898 28.0836 20.7765C27.5959 20.3701 26.646 20.0094 25.2337 19.6893C23.8214 19.3693 22.3482 19.2067 20.814 19.2067C20.3873 19.2067 20.0825 19.2778 19.9047 19.4201C19.7268 19.5623 19.6354 19.8062 19.6354 20.1516C19.6354 20.9594 20.0875 21.5487 20.9918 21.9093C21.8961 22.2751 23.3591 22.4529 25.3861 22.4529H26.1176C26.2853 22.4529 26.4174 22.5139 26.519 22.6409C26.6206 22.7679 26.6866 22.9558 26.7222 23.2048C26.519 23.3978 26.1024 23.6112 25.4725 23.855C24.8425 24.0989 24.3599 24.3427 24.0246 24.5764C23.3083 25.0996 22.7343 25.7245 22.3025 26.4408C21.8656 27.1622 21.6522 27.8429 21.6522 28.4881C21.6522 28.8792 21.7437 29.3568 21.9265 29.9054C22.1094 30.4592 22.2009 30.7995 22.2009 30.9316V31.0586L22.1653 31.2212C21.642 31.1856 21.2255 30.8808 20.9258 30.3017C20.6209 29.7225 20.4685 28.9555 20.4685 27.9902V27.8277C20.372 27.9089 20.2806 27.9699 20.1942 28.0055C20.1028 28.041 20.0063 28.0613 19.8996 28.0613C19.7929 28.0613 19.6913 28.0512 19.5948 28.0359C19.4982 28.0156 19.3916 27.9902 19.2747 27.9547C19.3103 28.0868 19.3357 28.2138 19.356 28.3408C19.3763 28.4678 19.3814 28.5643 19.3814 28.6354C19.3814 29.0774 19.2087 29.4533 18.8632 29.7683C18.5178 30.0832 18.1063 30.2407 17.6288 30.2407C16.8769 30.2407 16.1149 29.875 15.3427 29.1434C14.5705 28.4119 14.1794 27.6956 14.1794 26.9894C14.1794 26.8574 14.1946 26.7405 14.2251 26.6389C14.2708 26.5322 14.3216 26.4459 14.3927 26.3748ZM19.7522 26.8015C19.9555 26.8015 20.1383 26.71 20.306 26.5272C20.4736 26.3443 20.5549 26.1411 20.5549 25.9277C20.5549 25.7042 20.3923 25.1758 20.0621 24.3478C19.737 23.5197 19.3255 22.7069 18.8378 21.9093C18.4822 21.315 18.1317 20.8628 17.7862 20.5631C17.4408 20.2583 17.1157 20.1059 16.8058 20.1059C16.5569 20.1059 16.2775 20.2634 15.9777 20.5784C15.6729 20.8933 15.5205 21.188 15.5205 21.4623C15.5205 21.7468 15.6678 22.1786 15.9676 22.7476C16.2673 23.3165 16.6635 23.9261 17.1665 24.5713C17.6897 25.2724 18.1825 25.821 18.6499 26.2122C19.1071 26.6084 19.4779 26.8015 19.7522 26.8015ZM21.4998 18.1755L19.5694 12.6026C19.0715 11.1852 18.6803 10.2606 18.406 9.82376C18.1317 9.38687 17.837 9.17351 17.5119 9.17351C17.263 9.17351 17.0598 9.27003 16.9023 9.45799C16.7499 9.65104 16.6686 9.90504 16.6686 10.2251C16.6686 10.7737 16.8769 11.7237 17.2935 13.0801C17.71 14.4365 18.3349 16.2196 19.168 18.4193C19.2392 18.2872 19.3408 18.1958 19.4728 18.145C19.6049 18.0891 19.7827 18.0637 20.0063 18.0637C20.0774 18.0637 20.2196 18.0688 20.433 18.084C20.6616 18.0993 21.0121 18.1297 21.4998 18.1755ZM23.5217 23.5858C23.0086 23.5604 22.526 23.5096 22.0637 23.4232C21.6065 23.3419 21.1696 23.22 20.753 23.0676C20.941 23.4486 21.1137 23.8296 21.261 24.2106C21.4084 24.5916 21.5303 24.9676 21.6268 25.3333C21.9113 24.9777 22.211 24.6526 22.5311 24.358C22.846 24.0735 23.1762 23.8144 23.5217 23.5858ZM25.8941 18.7851C26.6917 16.6159 27.3115 14.8277 27.7585 13.4205C28.2056 12.0082 28.4291 11.1446 28.4291 10.8195C28.4291 10.474 28.3529 10.2048 28.2055 10.0168C28.0582 9.82884 27.8499 9.73232 27.5909 9.73232C27.2556 9.73232 26.9203 10.0066 26.5748 10.5604C26.2294 11.1141 25.8484 12.0031 25.4318 13.2325L23.6436 18.3939L25.8941 18.7851Z" fill="black"/>
</svg>
