<svg width="20" height="17" viewBox="0 0 20 17" fill="none" xmlns="http://www.w3.org/2000/svg">
<path d="M14.4896 15.5815V13.9915C14.4896 13.1481 14.1395 12.3392 13.5165 11.7429C12.8934 11.1465 12.0483 10.8115 11.1672 10.8115H4.5224C3.64125 10.8115 2.79619 11.1465 2.17312 11.7429C1.55005 12.3392 1.20001 13.1481 1.20001 13.9915V15.5815" stroke="#7D8B96" stroke-linecap="round" stroke-linejoin="round"/>
<path d="M7.84479 7.63142C9.6797 7.63142 11.1672 6.20769 11.1672 4.45142C11.1672 2.69516 9.6797 1.27142 7.84479 1.27142C6.00988 1.27142 4.5224 2.69516 4.5224 4.45142C4.5224 6.20769 6.00988 7.63142 7.84479 7.63142Z" stroke="#7D8B96" stroke-linecap="round" stroke-linejoin="round"/>
<path d="M19.4732 15.5814V13.9914C19.4726 13.2869 19.2276 12.6024 18.7766 12.0455C18.3256 11.4887 17.6941 11.0909 16.9814 10.9148" stroke="#7D8B96" stroke-linecap="round" stroke-linejoin="round"/>
<path d="M13.659 1.37476C14.3737 1.5499 15.0071 1.94771 15.4594 2.50549C15.9118 3.06327 16.1573 3.74929 16.1573 4.45538C16.1573 5.16148 15.9118 5.84749 15.4594 6.40527C15.0071 6.96305 14.3737 7.36087 13.659 7.53601" stroke="#7D8B96" stroke-linecap="round" stroke-linejoin="round"/>
</svg>
