<svg width="11" height="16" viewBox="0 0 11 16" fill="none" xmlns="http://www.w3.org/2000/svg">
<path d="M10.0378 7.84012C10.0953 8.07272 10.0235 8.33444 9.83688 8.50893L5.02859 13.38L2.66029 15.7792C2.41633 16.0409 2.02875 16.07 1.74174 15.8664C1.45467 15.6483 1.35415 15.2703 1.51204 14.9504L4.00948 9.87573L0.493017 8.68342C0.26332 8.61071 0.0767298 8.40715 0.0193174 8.15996C-0.0381428 7.92736 0.0336703 7.66553 0.220261 7.49105L7.39681 0.220813C7.64076 -0.0409151 8.02834 -0.0699477 8.31536 0.13357C8.60242 0.351726 8.70294 0.729778 8.54505 1.04962L6.04762 6.12424L9.56408 7.31656C9.79382 7.38931 9.98041 7.59288 10.0378 7.84012Z" fill="url(#paint0_linear)"/>
<defs>
<linearGradient id="paint0_linear" x1="4" y1="7.12608e-08" x2="5.09091" y2="14.9091" gradientUnits="userSpaceOnUse">
<stop stop-color="#FFC100"/>
<stop offset="1" stop-color="#FFCF3A"/>
</linearGradient>
</defs>
</svg>
