<svg width="102" height="102" viewBox="0 0 102 102" fill="none" xmlns="http://www.w3.org/2000/svg">
<g filter="url(#filter0_d)">
<rect x="6" y="4" width="90" height="90" rx="4" fill="white"/>
</g>
<path d="M31.152 63.144C30.072 63.144 29.24 62.884 28.656 62.364C28.072 61.844 27.78 61.044 27.78 59.964V54.768H28.92V60.024C28.92 60.728 29.112 61.264 29.496 61.632C29.888 61.992 30.44 62.172 31.152 62.172C31.872 62.172 32.428 61.988 32.82 61.62C33.212 61.252 33.408 60.72 33.408 60.024V54.768H34.548V59.964C34.548 61.044 34.256 61.844 33.672 62.364C33.088 62.884 32.248 63.144 31.152 63.144ZM36.4402 54.768H40.4482C41.2722 54.768 41.9042 54.996 42.3442 55.452C42.7842 55.908 43.0042 56.516 43.0042 57.276C43.0042 58.052 42.7722 58.676 42.3082 59.148C41.8522 59.612 41.2322 59.844 40.4482 59.844H37.5802V63H36.4402V54.768ZM40.3882 58.848C40.8362 58.848 41.1922 58.708 41.4562 58.428C41.7202 58.148 41.8522 57.768 41.8522 57.288C41.8522 56.8 41.7282 56.424 41.4802 56.16C41.2322 55.896 40.8682 55.764 40.3882 55.764H37.5802V58.848H40.3882ZM44.4441 54.768H45.5841V62.004H49.8081V63H44.4441V54.768ZM54.8321 63.144C53.5281 63.144 52.5161 62.788 51.7961 62.076C51.0841 61.356 50.7281 60.292 50.7281 58.884C50.7281 57.476 51.0841 56.416 51.7961 55.704C52.5161 54.984 53.5281 54.624 54.8321 54.624C56.1441 54.624 57.1561 54.984 57.8681 55.704C58.5881 56.416 58.9481 57.476 58.9481 58.884C58.9481 60.284 58.5881 61.344 57.8681 62.064C57.1561 62.784 56.1441 63.144 54.8321 63.144ZM54.8321 62.172C55.7841 62.172 56.5121 61.916 57.0161 61.404C57.5201 60.884 57.7721 60.06 57.7721 58.932V58.884C57.7641 57.74 57.5081 56.908 57.0041 56.388C56.5001 55.86 55.7761 55.596 54.8321 55.596C53.8961 55.596 53.1761 55.86 52.6721 56.388C52.1681 56.908 51.9121 57.74 51.9041 58.884V58.932C51.9041 60.06 52.1561 60.884 52.6601 61.404C53.1641 61.916 53.8881 62.172 54.8321 62.172ZM62.7799 54.768H64.2319L67.4239 63H66.2119L65.3839 60.804H61.5679L60.7639 63H59.5879L62.7799 54.768ZM65.0119 59.808L64.0519 57.24L63.4999 55.752H63.4399L62.8999 57.216L61.9399 59.808H65.0119ZM68.4558 54.768H71.5038C72.8238 54.768 73.8398 55.108 74.5518 55.788C75.2638 56.46 75.6198 57.492 75.6198 58.884C75.6198 60.276 75.2638 61.312 74.5518 61.992C73.8398 62.664 72.8238 63 71.5038 63H68.4558V54.768ZM71.5038 62.004C72.4558 62.004 73.1798 61.764 73.6758 61.284C74.1798 60.804 74.4358 60.012 74.4438 58.908V58.884C74.4438 57.772 74.1918 56.976 73.6878 56.496C73.1918 56.008 72.4638 55.764 71.5038 55.764H69.5958V62.004H71.5038ZM35.1043 68.768H36.2443V76.004H40.4683V77H35.1043V68.768ZM45.4922 77.144C44.1882 77.144 43.1762 76.788 42.4562 76.076C41.7442 75.356 41.3882 74.292 41.3882 72.884C41.3882 71.476 41.7442 70.416 42.4562 69.704C43.1762 68.984 44.1882 68.624 45.4922 68.624C46.8042 68.624 47.8162 68.984 48.5282 69.704C49.2482 70.416 49.6082 71.476 49.6082 72.884C49.6082 74.284 49.2482 75.344 48.5282 76.064C47.8162 76.784 46.8042 77.144 45.4922 77.144ZM45.4922 76.172C46.4442 76.172 47.1722 75.916 47.6762 75.404C48.1802 74.884 48.4322 74.06 48.4322 72.932V72.884C48.4242 71.74 48.1682 70.908 47.6642 70.388C47.1602 69.86 46.4362 69.596 45.4922 69.596C44.5562 69.596 43.8362 69.86 43.3322 70.388C42.8282 70.908 42.5722 71.74 42.5642 72.884V72.932C42.5642 74.06 42.8162 74.884 43.3202 75.404C43.8242 75.916 44.5482 76.172 45.4922 76.172ZM54.8081 77.144C53.4641 77.144 52.4481 76.792 51.7601 76.088C51.0721 75.376 50.7281 74.308 50.7281 72.884C50.7281 70.044 52.1121 68.624 54.8801 68.624C56.0161 68.624 56.9281 68.876 57.6161 69.38C58.3041 69.884 58.6481 70.616 58.6481 71.576H57.4841C57.4841 70.912 57.2521 70.416 56.7881 70.088C56.3241 69.76 55.6881 69.596 54.8801 69.596C53.8801 69.596 53.1361 69.852 52.6481 70.364C52.1601 70.876 51.9161 71.716 51.9161 72.884V72.908C51.9241 74.068 52.1641 74.904 52.6361 75.416C53.1161 75.92 53.8401 76.172 54.8081 76.172C55.7361 76.172 56.4161 75.98 56.8481 75.596C57.2881 75.212 57.5081 74.624 57.5081 73.832V73.712H54.6041V72.716H58.6481V77H57.7601L57.6761 76.088C57.0521 76.792 56.0961 77.144 54.8081 77.144ZM64.1719 77.144C62.8679 77.144 61.8559 76.788 61.1359 76.076C60.4239 75.356 60.0679 74.292 60.0679 72.884C60.0679 71.476 60.4239 70.416 61.1359 69.704C61.8559 68.984 62.8679 68.624 64.1719 68.624C65.4839 68.624 66.4959 68.984 67.2079 69.704C67.9279 70.416 68.2879 71.476 68.2879 72.884C68.2879 74.284 67.9279 75.344 67.2079 76.064C66.4959 76.784 65.4839 77.144 64.1719 77.144ZM64.1719 76.172C65.1239 76.172 65.8519 75.916 66.3559 75.404C66.8599 74.884 67.1119 74.06 67.1119 72.932V72.884C67.1039 71.74 66.8479 70.908 66.3439 70.388C65.8399 69.86 65.1159 69.596 64.1719 69.596C63.2359 69.596 62.5159 69.86 62.0119 70.388C61.5079 70.908 61.2519 71.74 61.2439 72.884V72.932C61.2439 74.06 61.4959 74.884 61.9999 75.404C62.5039 75.916 63.2279 76.172 64.1719 76.172Z" fill="#7D8B96"/>
<path d="M44 36.5V39.2C44 40.1941 44.8059 41 45.8 41H58.4C59.3941 41 60.2 40.1941 60.2 39.2V36.5" stroke="#7D8B96" stroke-linecap="round" stroke-linejoin="round"/>
<path d="M55.7 26.6L52.1 23L48.5 26.6" stroke="#7D8B96" stroke-linecap="round" stroke-linejoin="round"/>
<path d="M52.1006 23V35.6" stroke="#7D8B96" stroke-linecap="round" stroke-linejoin="round"/>
<defs>
<filter id="filter0_d" x="0" y="0" width="102" height="102" filterUnits="userSpaceOnUse" color-interpolation-filters="sRGB">
<feFlood flood-opacity="0" result="BackgroundImageFix"/>
<feColorMatrix in="SourceAlpha" type="matrix" values="0 0 0 0 0 0 0 0 0 0 0 0 0 0 0 0 0 0 127 0"/>
<feOffset dy="2"/>
<feGaussianBlur stdDeviation="3"/>
<feColorMatrix type="matrix" values="0 0 0 0 0 0 0 0 0 0 0 0 0 0 0 0 0 0 0.1 0"/>
<feBlend mode="normal" in2="BackgroundImageFix" result="effect1_dropShadow"/>
<feBlend mode="normal" in="SourceGraphic" in2="effect1_dropShadow" result="shape"/>
</filter>
</defs>
</svg>
